<svg xmlns="http://www.w3.org/2000/svg" xmlns:xlink="http://www.w3.org/1999/xlink"><symbol id="sprite-arrow" fill="none" viewBox="0 0 18 34"><path d="m17 1-16 16 16 16"/></symbol><use xlink:href="#sprite-arrow" width="18" height="34"/><view id="sprite-arrow-view" viewBox="0 0 18 34"/><symbol id="sprite-icon-play" viewBox="0 0 9 12"><path d="m9 6-9 5.2v-10.4z"/></symbol><use xlink:href="#sprite-icon-play" width="9" height="12" y="34"/><view id="sprite-icon-play-view" viewBox="0 34 9 12"/><symbol id="sprite-logo" fill="none" viewBox="0 0 100 20"><path fill="#fff" d="M86.91.28h2.78l3.2 13.3 3.2-13.3h2.46l-4.47 19.45h-2.37zm-1.12 0h2.64l.41 12.83v6.62h-3.06zm11.55 0h2.66v19.45h-3.05v-6.62zm-21.24 0 2.4 8.77 2.38-8.77h3.45l-4.24 12.39v7.06h-3.19v-7.07l-4.24-12.38zm-3.84 9.23v8.02q-.34.44-.99 1.03-.63.57-1.67 1.01-1.03.43-2.5.43-1.32 0-2.39-.5-1.06-.51-1.82-1.54-.76-1.05-1.16-2.6-.4-1.56-.4-3.7v-3.31q0-2.11.38-3.67.39-1.58 1.12-2.62t1.75-1.55q1.03-.51 2.32-.51 1.77 0 2.9.74 1.15.73 1.74 2.17.59 1.45.7 3.54h-3.05q-.08-1.23-.34-1.92-.24-.7-.7-.99t-1.18-.3q-.62 0-1.09.27-.46.27-.78.89-.31.61-.46 1.57t-.15 2.35v3.34q0 1.38.17 2.36.17.97.5 1.59.35.61.87.89.53.27 1.25.27.57 0 .91-.15t.55-.3q.22-.18.36-.27v-3.58h-2.26v-2.96zm-23.71-9.23h5.04q1.58 0 2.7.67 1.1.67 1.7 1.98.6 1.3.6 3.23 0 1.57-.35 2.7-.34 1.1-.98 1.85-.64.74-1.53 1.18l-.96.7h-4.1v-3.24h2.84q.65 0 1.07-.35.43-.36.64-1 .21-.65.21-1.52 0-.92-.2-1.58-.18-.67-.59-1.01-.4-.36-1.05-.36h-1.88v16.2h-3.16zm7.14 19.45-2.88-8.67 3.31-.01 2.95 8.5v.18zm-9.78-3.23v3.23h-6.84v-3.23zm-5.86-16.22v19.45h-3.16v-19.45zm4.94 7.88v3.14h-5.92v-3.14zm.9-7.88v3.25h-6.82v-3.25zm-15.45 12.6h-3.22v-3.25h3.22q.67 0 1.1-.37.42-.38.62-1.03.2-.67.2-1.5a6 6 0 0 0-.21-1.56q-.2-.74-.62-1.19-.4-.45-1.09-.45h-2.2v16.2h-3.16v-19.45h5.36q1.59 0 2.74.83 1.14.83 1.75 2.28t.61 3.32-.61 3.27q-.61 1.38-1.75 2.14t-2.74.76m-10.94-12.6h3.16v13.36q0 2.24-.67 3.66-.66 1.4-1.83 2.06-1.17.64-2.67.64-1.51 0-2.7-.64-1.17-.66-1.83-2.06-.65-1.41-.65-3.66v-13.36h3.16v13.36q0 1.27.23 1.95t.68.93q.45.24 1.11.24t1.1-.24q.44-.25.67-.93t.24-1.95zm-12.37 14.34q0-.53-.07-.95a2 2 0 0 0-.33-.8 3 3 0 0 0-.7-.71 8 8 0 0 0-1.19-.75 26 26 0 0 1-1.7-.96 8 8 0 0 1-1.47-1.2 5 5 0 0 1-1.05-1.6q-.38-.94-.38-2.2 0-1.23.36-2.23a5 5 0 0 1 1.03-1.71q.67-.72 1.57-1.11.9-.38 2.02-.39 1.51 0 2.62.78 1.1.77 1.72 2.12t.61 3.1h-3.15q0-.82-.2-1.45-.18-.64-.6-1-.4-.36-1.05-.36-.6 0-1 .3t-.6.82a3 3 0 0 0-.18 1.15q0 .48.19.86.2.38.53.69.33.29.79.57t1.01.55q1.07.52 1.9 1.15.82.61 1.37 1.39.55.76.83 1.72t.28 2.19-.34 2.22a5 5 0 0 1-.99 1.7 4.4 4.4 0 0 1-1.57 1.1q-.9.39-2.03.39a6 6 0 0 1-2.06-.37 5 5 0 0 1-1.72-1.17q-.74-.79-1.16-1.99-.42-1.21-.42-2.87h3.17q0 .88.14 1.51.14.61.43.99.3.36.71.55.44.17.99.17.62 0 1-.3.37-.29.53-.78t.16-1.13"/></symbol><use xlink:href="#sprite-logo" width="100" height="20" y="46"/><view id="sprite-logo-view" viewBox="0 46 100 20"/><symbol id="sprite-ok" viewBox="0 0 10 17"><path d="M4.68 2.89c.9 0 1.63.75 1.63 1.68s-.73 1.68-1.63 1.68-1.63-.75-1.63-1.68.73-1.68 1.63-1.68m0 5.74a4 4 0 0 0 3.94-4.06 4 4 0 0 0-3.94-4.06 4 4 0 0 0-3.93 4.06 4 4 0 0 0 3.93 4.06m1.6 3.31a7 7 0 0 0 2.28-.97c.53-.35.7-1.09.36-1.64a1.13 1.13 0 0 0-1.6-.38 4.9 4.9 0 0 1-5.29 0 1.13 1.13 0 0 0-1.59.38 1.2 1.2 0 0 0 .37 1.64q1.07.69 2.28.97l-2.2 2.27a1.2 1.2 0 0 0 0 1.68 1.14 1.14 0 0 0 1.63 0l2.16-2.23 2.16 2.23c.45.47 1.18.47 1.63 0s.45-1.21 0-1.68z"/></symbol><use xlink:href="#sprite-ok" width="10" height="17" y="66"/><view id="sprite-ok-view" viewBox="0 66 10 17"/><symbol id="sprite-reddit" viewBox="0 0 15 15"><path d="M8.85.56c-.44 0-.86.22-1.13.55s-.42.72-.52 1.14a10 10 0 0 0-.24 2.1 7 7 0 0 0-3.33 1.02 2 2 0 0 0-1.28-.5c-.5 0-.98.23-1.33.67-.68.85-.6 2.24.18 3.06a4 4 0 0 0-.08.78c0 2.8 2.86 5.06 6.38 5.06s6.38-2.26 6.38-5.06q0-.39-.08-.78c.78-.82.86-2.21.18-3.06a1.7 1.7 0 0 0-1.33-.66 2 2 0 0 0-1.28.49 7 7 0 0 0-3.31-1.03 8 8 0 0 1 .18-1.75q.12-.46.27-.64c.1-.13.17-.18.34-.18.36 0 .4.12.63.4q.14.23.44.5c.2.17.5.32.82.32v-1.22c-.09 0-.1 0-.17-.05l-.27-.35c-.25-.32-.73-.81-1.45-.81m3.51.11c-.84 0-1.52.77-1.52 1.71 0 .95.68 1.71 1.52 1.71s1.52-.76 1.52-1.7c0-.95-.68-1.72-1.52-1.72m0 .6c.54 0 .98.5.98 1.11s-.44 1.1-.98 1.1-.98-.49-.98-1.1.44-1.1.98-1.1m-4.86 4.01c3 0 5.52 1.88 5.52 4.1s-2.53 4.08-5.52 4.08-5.52-1.87-5.52-4.09 2.53-4.09 5.52-4.09m-5.13.56q.22 0 .45.11a5 5 0 0 0-1.26 1.6c-.2-.47-.15-1.06.1-1.37a1 1 0 0 1 .7-.34m10.27 0a1 1 0 0 1 .71.34c.25.31.3.9.1 1.37a5 5 0 0 0-1.26-1.6q.23-.1.45-.11m-7.3 1.52c-.53 0-.97.5-.97 1.1s.44 1.1.98 1.1.98-.5.98-1.1-.44-1.1-.98-1.1m4.32 0c-.54 0-.98.5-.98 1.1s.44 1.1.98 1.1.98-.5.98-1.1-.44-1.1-.98-1.1m-4.85 3.75c.35.8 1.41 1.58 2.69 1.58s2.36-.78 2.7-1.58c-.62.45-1.6.76-2.7.76s-2.06-.31-2.69-.76"/></symbol><use xlink:href="#sprite-reddit" width="15" height="15" y="83"/><view id="sprite-reddit-view" viewBox="0 83 15 15"/><symbol id="sprite-ruble" fill="none" viewBox="0 0 24 34"><path fill="#102654" fill-rule="evenodd" d="M14.8 5.21h-6.8v8.65h6.8c2.43 0 4.4-1.94 4.4-4.32a4.36 4.36 0 0 0-4.4-4.33m-11.6-4.71v18.07h11.6c5.08 0 9.2-4.04 9.2-9.03s-4.12-9.04-9.2-9.04z" clip-rule="evenodd"/><path fill="#102654" fill-rule="evenodd" d="M0 13.86h4.8v4.71h-4.8z" clip-rule="evenodd"/><path fill="#102654" fill-rule="evenodd" d="M2.93 22.75v-8.1h4.8v8.1h9.07v4.72h-9.07v6.03h-4.8v-6.03h-2.93v-4.72z" clip-rule="evenodd"/></symbol><use xlink:href="#sprite-ruble" width="24" height="34" y="98"/><view id="sprite-ruble-view" viewBox="0 98 24 34"/><symbol id="sprite-vk" viewBox="0 0 13 8"><path d="M7.72 6.05c.45-.14 1.01.95 1.62 1.36.45.32.8.25.8.25l1.6-.02s.84-.05.45-.72c-.04-.06-.24-.5-1.2-1.4-1-.95-.87-.8.34-2.43q1.1-1.48.94-1.87c-.08-.25-.63-.18-.63-.18l-1.8.01q-.29-.01-.4.24s-.3.77-.67 1.43c-.8 1.38-1.13 1.45-1.26 1.37-.31-.2-.23-.8-.23-1.24 0-1.34.2-1.9-.4-2.04a3 3 0 0 0-.84-.09c-.65 0-1.2 0-1.5.16-.2.1-.37.33-.27.34.12.02.39.07.53.27.19.26.18.83.18.83s.11 1.58-.25 1.77c-.24.14-.58-.14-1.3-1.4-.36-.64-.64-1.35-.64-1.35s-.05-.13-.15-.2a1 1 0 0 0-.28-.11h-1.72s-.26.02-.35.13 0 .31 0 .31 1.34 3.19 2.87 4.79c1.4 1.47 2.98 1.38 2.98 1.38h.72s.22-.03.33-.15c.1-.1.1-.32.1-.32s-.02-.98.43-1.12"/></symbol><use xlink:href="#sprite-vk" width="13" height="8" y="132"/><view id="sprite-vk-view" viewBox="0 132 13 8"/></svg>